<?xml version="1.0" standalone="no"?>
<!DOCTYPE svg PUBLIC "-//W3C//DTD SVG 20010904//EN"
 "http://www.w3.org/TR/2001/REC-SVG-20010904/DTD/svg10.dtd">
<svg version="1.0" xmlns="http://www.w3.org/2000/svg"
 width="1000.000000pt" height="1000.000000pt" viewBox="0 0 1000.000000 1000.000000"
 preserveAspectRatio="xMidYMid meet">
<metadata>
Created by potrace 1.11, written by Peter Selinger 2001-2013
</metadata>
<g transform="translate(0.000000,1000.000000) scale(0.100000,-0.100000)"
fill="#000000" stroke="none">
<path d="M5393 9476 c-92 -35 -169 -84 -227 -147 -65 -70 -98 -132 -131 -244
-14 -50 -31 -95 -38 -102 -10 -10 -31 -7 -102 14 -122 35 -290 37 -379 5 -89
-33 -137 -65 -199 -132 -68 -73 -118 -172 -155 -307 l-27 -98 -5 -1387 c-3
-762 -9 -1390 -13 -1395 -9 -8 -238 105 -559 277 -103 55 -215 109 -250 121
-88 30 -241 37 -328 14 -169 -44 -307 -158 -385 -318 l-45 -93 0 -138 c0 -130
2 -142 31 -214 70 -176 116 -229 619 -706 245 -232 503 -476 574 -542 188
-172 284 -313 346 -504 55 -171 53 -111 59 -1630 3 -773 9 -1410 14 -1417 25
-39 192 -42 231 -4 12 12 22 43 28 78 4 32 7 364 7 737 -2 647 -1 680 17 693
15 11 254 13 1350 13 1198 0 1334 -2 1348 -16 14 -14 16 -96 16 -754 0 -818
-5 -763 66 -776 60 -11 172 1 194 21 20 18 20 46 20 3609 0 2396 -4 3637 -11
3729 -17 230 -56 341 -152 437 -80 80 -185 121 -351 137 -54 6 -81 13 -87 23
-4 8 -12 98 -18 200 -14 223 -29 299 -81 408 -130 271 -407 361 -711 232 -72
-31 -94 -31 -104 0 -11 36 -114 127 -182 161 -65 33 -73 34 -193 36 -110 2
-132 0 -187 -21z m286 -284 c45 -36 70 -78 89 -151 13 -47 16 -184 21 -849 7
-923 -10 -822 137 -822 75 0 96 3 115 19 l24 19 5 754 5 753 31 55 c46 81 103
114 198 115 155 0 233 -96 265 -330 7 -48 11 -318 11 -721 0 -760 -15 -684
134 -684 77 0 98 3 117 19 l24 19 5 339 c5 361 7 370 58 416 29 27 92 33 130
13 109 -56 142 -184 142 -550 0 -252 -5 -278 -60 -318 -26 -18 -1899 -742
-1951 -753 -22 -5 -116 22 -379 110 -289 96 -353 121 -370 143 -21 26 -21 31
-17 846 3 753 5 826 21 881 54 179 130 242 283 233 139 -8 200 -58 261 -212
14 -35 17 -113 22 -573 4 -417 8 -535 18 -545 8 -8 48 -14 110 -16 86 -3 101
-1 122 16 l25 20 5 774 c5 765 5 774 27 826 12 29 33 68 47 87 77 101 241 135
325 67z m1502 -2245 c0 -12 0 -258 0 -546 1 -437 -1 -526 -13 -538 -12 -12
-120 23 -769 252 -415 147 -759 272 -766 278 -9 9 145 72 679 277 380 146 723
277 762 291 77 29 106 26 107 -14z m-2060 -701 c754 -254 1962 -669 2015 -691
22 -9 39 -26 48 -45 10 -25 12 -206 8 -928 -2 -493 -6 -899 -8 -901 -2 -2 -54
39 -116 91 -139 116 -1667 1372 -2168 1782 -201 165 -384 318 -408 340 -79 74
-82 86 -82 327 0 184 2 215 17 231 9 10 19 18 24 18 4 0 306 -101 670 -224z
m-1852 -453 c42 -21 292 -149 556 -285 264 -136 496 -254 516 -262 60 -25 63
-17 69 161 4 136 7 158 21 161 10 2 260 -197 620 -493 717 -590 669 -548 669
-573 0 -13 -204 -220 -593 -601 -327 -319 -605 -596 -618 -616 -13 -19 -28
-33 -34 -32 -5 2 -14 26 -18 53 -59 349 -143 578 -278 757 -29 38 -244 250
-502 495 -248 235 -510 483 -582 550 -159 151 -199 199 -238 280 -35 75 -47
177 -27 238 19 59 65 120 117 155 103 71 199 75 322 12z m2753 -1530 c155
-131 856 -749 867 -765 9 -13 11 -22 4 -29 -7 -7 -1961 -770 -2367 -924 -47
-18 -49 -18 -62 0 -19 26 -19 218 0 273 26 73 64 116 299 342 127 123 434 422
681 664 247 243 461 449 475 458 38 26 53 23 103 -19z m1076 -1035 c9 -9 12
-119 12 -434 0 -387 -1 -423 -17 -442 -10 -12 -29 -22 -43 -23 -92 -6 -2292 3
-2284 9 5 5 144 61 309 125 1178 458 2001 777 2006 777 3 0 10 -5 17 -12z"/>
</g>
</svg>
