<svg version="1.1" xmlns="http://www.w3.org/2000/svg" viewBox="0 0 1000 1000">
<style type="text/css">
<![CDATA[
	.st0{fill:#C7C6C6;}
	.st1{fill:#CCCCCC;}
	.st2{fill:#010101;}
]]>
</style>
<g>
	<polygon class="st0" points="361.5,599.8 579.4,599.8 587.2,226.2 437.4,286.5 361.5,270.9 361.5,337.1 474.3,428.5 361.5,547.3
		"/>
	<path class="st2" d="M457.6,285c1.4,1.2,1.7,1.5,2,1.7c36.9,13.1,73.9,26.1,110.8,39.2c4.4,1.6,5.4,0,5.4-4.1
		c-0.1-25.1-0.1-50.2,0-75.3c0-5.7-1.9-6.1-6.7-4.2c-27.3,10.6-54.6,21.1-82,31.5C477.6,277.3,468,281,457.6,285 M392.5,591.2
		c1.2,0.5,1.6,0.8,1.9,0.8c56.6,0,113.1,0,169.7,0.1c5.3,0,6.1-2.5,6.1-6.9c-0.1-18.3,0-36.6-0.1-54.8c0-8.1-0.1-8.2-7.6-5.2
		c-44.1,17.1-88.2,34.2-132.3,51.3C417.9,581.2,405.5,586.1,392.5,591.2 M370,564c0,2.8,0,3.9,0,5c0,8.8,0,8.8,8.1,5.7
		c17-6.6,34-13.2,51-19.8c40.4-15.7,80.7-31.4,121.1-47c3.9-1.5,6-2.5,1.6-6.3c-21.3-18.4-42.5-36.9-63.5-55.7
		c-4-3.6-6.4-3.4-10.2,0.4c-32.6,32.1-65.2,64.1-98.3,95.7C372.6,548.9,368.8,556,370,564 M370.3,521.6c0.7,0.3,1.3,0.7,2,1
		c2.1-2.5,4-5.3,6.3-7.6c27.5-27,55-53.9,82.6-80.8c6.5-6.4,6.6-6.2-0.5-11.9c-13.6-11.1-27.2-22.3-40.8-33.5
		c-15.5-12.7-30.9-25.5-46.4-38.2c-1.6-1.4-3.4-4-5.4-3.2c-2.6,1.1-1.2,4.3-1.3,6.6c-0.2,4.4,0.1,8.8,0,13.2c-0.2,6.3-1.4,7-7.1,4.1
		c-23.5-12-47-24-70.5-36.2c-5.3-2.7-10.2-6.1-16.1-7.3c-12.3-2.6-25.9,8.1-26.3,20.5c-0.3,11.3,5.5,19.7,13.2,27
		c26.8,25.5,53.7,50.9,80.5,76.3c8.1,7.7,14.2,16.7,18.7,26.9C365.4,492.2,369.3,506.5,370.3,521.6 M576.2,490.9
		c0.2-2.4,0.4-3.6,0.4-4.9c0-43.4-0.1-86.8,0.1-130.1c0-5.2-2.5-6.7-6.7-8.1c-36.8-12.6-73.6-25.4-110.5-37.9
		c-28.5-9.7-57.1-19.2-85.7-28.9c-5.3-1.8-7.2-0.6-7,5.1c0.3,7.9,0.4,15.9-0.1,23.8c-0.5,6.8,2.5,10.9,7.5,15
		c58.9,48.3,117.7,96.7,176.6,145.1C559,476.6,567.2,483.5,576.2,490.9 M366.8,193.5c0,19.2,0.1,38.3-0.1,57.5
		c0,4.4,1.6,6.7,5.9,8.1c15.5,5,30.9,10.3,46.3,15.5c2.8,0.9,5.4,1.2,8.3,0.1c44.8-17.3,89.6-34.3,134.4-51.6
		c14.9-5.8,14.9-5.9,15-22.1c0-12.1,0.8-24.3-2.4-36.1c-2.5-9.4-7.6-13.6-14.3-12.9c-5.6,0.7-8.8,6.2-8.8,15.7
		c0,12.6-0.2,25.1,0.2,37.7c0.2,6.4-2.2,9-8.4,8.2c-1.1-0.1-2.2,0-3.3,0c-9,0-9,0-9.1-9.2c0-28.8,0-57.7,0-86.6
		c0-8.2-1.1-16.3-4.2-23.9c-2.7-6.6-7.5-10.8-15-11.1c-11.6-0.5-19.3,7.2-19.5,20c-0.2,13.9,0,27.8-0.1,41.6
		c0,20.3-0.2,40.5-0.1,60.8c0,5.1-1.8,7.5-7,7c-1.1-0.1-2.2,0-3.3,0c-10.4,0.1-10.4,0.1-10.4-10c0-33.7,0-67.4-0.1-101.1
		c0-4.8-0.5-9.7-1.4-14.4c-2.5-13.1-12.8-18-24.8-12c-5.2,2.6-8.3,7-10.3,12.3c-2.3,6.2-2.1,12.5-2.1,18.9c0,32.2-0.1,64.3,0.1,96.5
		c0,5.3-1.4,8-7.1,7.4c-1.5-0.2-3.1,0-4.6,0c-8.7-0.1-9-0.3-9-8.9c-0.1-21.4,0-42.7-0.1-64.1c0-6.7-1.3-13.1-4.5-19.1
		c-4.3-7.8-11.7-9.6-19.7-9.7c-7.7-0.1-12.7,4.2-15.9,10.9c-3.6,7.5-4.4,15.6-4.4,23.8C366.8,159.5,366.8,176.5,366.8,193.5
		 M462,51.9c8.8,2.9,16.5,7.3,21.4,15.6c1.3,2.3,2.8,1.9,4.9,0.8c30-15.3,58.1,0.8,61.4,34.9c0.8,7.9,1.4,15.8,1.3,23.7
		c0,2.9,0.4,5,4.3,5.1c25.3,0.5,38.3,12.3,40.6,36.8c0.8,8.1,1.1,16.2,1.1,24.4c0,101.3,0.2,202.6,0.2,303.9c0,74-0.1,148-0.3,222
		c0,3.3,1.7,8.2-2.5,9.4c-5.2,1.6-11.1,1.6-16.3-0.2c-2.7-0.9-1.6-4.7-1.6-7.3c-0.1-32.8,0-65.6,0-98.4c0-9.8,0-9.8-9.6-9.8
		c-62.8,0-125.5,0-188.3,0.1c-8.6,0-8.7,0.1-8.6,8.8c0.2,30.5,0.4,61.1,0.5,91.6c0,1.3-0.2,2.6-0.3,4c-1,12-1,11.7-12.4,12.1
		c-6.5,0.2-8.4-2.1-8.4-8.3c0.2-28.2,0.1-56.4,0.1-84.6c0-37.4,0.8-74.9-0.2-112.3c-0.6-23.7-8.4-44.9-27-61.6
		c-25.5-23-50-47.1-75-70.6c-9.9-9.3-16.9-20.2-20.6-33.2V340c0.5-1.2,1.1-2.4,1.5-3.6c10.3-26.7,39-37,64-23.3
		c15.4,8.4,31.1,16.4,46.8,24.5c6.5,3.4,6.7,3.2,6.7-4.3c0-57.2-0.1-114.5-0.1-171.7c0-15.6-0.7-31.3,4.8-46.3
		c4.3-11.9,11.3-21.3,23.8-25.7c10.9-3.8,21.7-2.3,32.3,1.3c3.3,1.1,5.3,1.2,6.1-2.9c3.8-19.5,15.2-31.7,34.7-36.1H462z"/>
</g>
<g>
	<path d="M78.7,647.5c-0.2-1.4-0.2-2.4,0.1-2.9c0.3-0.5,1.3-0.7,3-0.7h11.7l6.1,40.7c0.9,6.2,1.7,12.2,2.2,17.8
		c0.6,5.6,1,10.5,1.2,14.7h1c0.2-5.7,0.5-11.3,1.1-16.8c0.5-5.4,1.2-10.7,2.1-15.7l5.4-33.2c0.2-1.3,0.4-2.3,0.8-2.9
		c0.4-0.6,1.2-0.9,2.6-0.9h9.9l6.4,36.9c1.1,6.2,1.9,12.2,2.4,17.8s0.9,10.5,1.2,14.7h1c0.1-2.2,0.2-4.7,0.4-7.4
		c0.2-2.7,0.4-5.5,0.7-8.3c0.2-2.8,0.5-5.7,0.8-8.5c0.3-2.8,0.6-5.6,1.1-8.2l5.2-36.9c0.2-1.3,0.5-2.3,0.9-2.9
		c0.4-0.6,1.2-0.9,2.5-0.9h12.1l-14.8,87.3c-1.4,0.2-2.6,0.3-3.6,0.4c-1,0.1-1.9,0.2-2.7,0.2c-0.8,0.1-1.7,0.1-2.6,0.1h-3.4
		c-2.2,0-3.8-0.7-5-2.1c-1.2-1.4-2-3.3-2.5-5.8l-2.7-13.5c-0.4-2.2-0.8-4.7-1.2-7.4c-0.4-2.7-0.8-5.4-1.1-8.2
		c-0.3-2.8-0.6-5.7-0.9-8.5c-0.3-2.8-0.6-5.5-0.8-8c-0.2,2.5-0.5,5.2-0.8,8c-0.3,2.8-0.6,5.7-0.9,8.5c-0.3,2.8-0.7,5.6-1.1,8.2
		c-0.4,2.7-0.7,5.1-1.1,7.4l-3.4,20.6c-1.2,0.2-2.4,0.3-3.3,0.3c-1,0-1.9,0.1-2.9,0.2c-1,0.1-2.1,0.1-3.2,0.1h-3.9
		c-1.9,0-3.4-0.7-4.5-2.2c-1.1-1.5-1.8-3.3-2.2-5.5c-0.5-2.5-1.1-5.5-1.7-9.1c-0.7-3.6-1.4-7.4-2.1-11.4c-0.7-4-1.4-8.2-2.2-12.6
		c-0.7-4.4-1.5-8.6-2.1-12.8C82.1,668.5,80.4,658.3,78.7,647.5z"/>
	<path d="M191,690.9h-12v37.8c0,0.7-0.1,1.2-0.2,1.5c-0.1,0.3-0.6,0.6-1.5,0.7c-0.9,0.1-2.2,0.2-4.1,0.2c-1.9,0-4.6,0.1-8.2,0.1
		v-84.8c0-0.6,0.1-1.1,0.2-1.4c0.1-0.4,0.6-0.6,1.5-0.7c0.9-0.1,2.2-0.2,4.1-0.2c1.9,0,4.6-0.1,8.2-0.1v34.3h12v-31.8
		c0-0.6,0.1-1.1,0.2-1.4c0.1-0.4,0.6-0.6,1.5-0.7c0.9-0.1,2.2-0.2,4.1-0.2c1.9,0,4.6-0.1,8.2-0.1v84.8c0,0.7-0.1,1.2-0.2,1.5
		c-0.1,0.3-0.6,0.6-1.5,0.7c-0.9,0.1-2.2,0.2-4.1,0.2c-1.9,0-4.6,0.1-8.2,0.1V690.9z"/>
	<path d="M244.1,718.8c0,2.9,0,5.2-0.1,6.9c0,1.7-0.1,2.9-0.2,3.7c-0.1,0.8-0.4,1.4-0.7,1.6c-0.4,0.2-0.9,0.3-1.4,0.3h-29.1v-84.8
		c0-0.5,0.1-0.9,0.4-1.2c0.2-0.3,0.4-0.6,0.7-0.9c0.3-0.2,0.8-0.4,1.4-0.4H245c0,2.8,0,5.1-0.1,6.7c0,1.6-0.1,2.9-0.2,3.7
		c-0.1,0.9-0.4,1.4-0.7,1.7c-0.4,0.2-0.9,0.4-1.4,0.4h-16v21.2h15.1c0,2.7,0,4.8-0.1,6.4c0,1.6-0.1,2.9-0.2,3.9
		c-0.1,1-0.4,1.6-0.7,1.9c-0.3,0.3-0.8,0.5-1.4,0.5h-12.7v28.4H244.1z"/>
	<path d="M264.2,643.9c3.9,0,7.4,0.4,10.4,1.1c3,0.7,5.6,2.1,7.6,4.1c2,2,3.6,4.6,4.7,7.9c1.1,3.3,1.6,7.5,1.6,12.6
		c0,6.2-0.8,11.2-2.4,14.9c-1.6,3.7-3.7,6.5-6.3,8.5c1,1.3,2.1,3,3.3,5.1c1.2,2,2.3,4.5,3.4,7.4c1,2.9,1.9,6.2,2.7,10
		c0.7,3.8,1.2,8.2,1.4,13c0,0.6-0.1,1.1-0.2,1.5c-0.1,0.4-0.4,0.7-0.9,1c-0.5,0.2-1.2,0.4-2.2,0.5c-1,0.1-2.3,0.1-3.9,0.1
		c-2.4,0-5.2-0.1-8.2-0.4c-0.2-4.8-0.5-9.1-1.1-12.8c-0.5-3.7-1.2-7-2-9.7c-0.8-2.7-1.6-5-2.6-6.8c-0.9-1.8-1.7-3.3-2.5-4.4h-3v31.2
		c0,0.7-0.1,1.2-0.2,1.5c-0.2,0.3-0.7,0.6-1.6,0.7c-0.9,0.1-2.3,0.2-4.2,0.2c-1.9,0-4.6,0.1-8,0.1v-84.8c-0.1-0.5,0-0.9,0.2-1.2
		c0.3-0.8,1.1-1.2,2.2-1.2H264.2z M272.8,668.9c0-4.5-0.4-7.8-1.3-9.8c-0.9-2-2.3-3.1-4.2-3.1h-3.4v28.7h2.5c1,0,1.9-0.2,2.6-0.6
		c0.7-0.4,1.4-1.2,2-2.4c0.6-1.2,1-2.8,1.3-4.9C272.6,674.7,272.8,672.1,272.8,668.9z"/>
	<path d="M327.3,718.8c0,2.9,0,5.2-0.1,6.9c0,1.7-0.1,2.9-0.2,3.7c-0.1,0.8-0.4,1.4-0.7,1.6c-0.4,0.2-0.9,0.3-1.4,0.3h-29.1v-84.8
		c0-0.5,0.1-0.9,0.4-1.2c0.2-0.3,0.4-0.6,0.7-0.9c0.3-0.2,0.8-0.4,1.4-0.4h29.9c0,2.8,0,5.1-0.1,6.7c0,1.6-0.1,2.9-0.2,3.7
		c-0.1,0.9-0.4,1.4-0.7,1.7c-0.4,0.2-0.9,0.4-1.4,0.4h-16v21.2h15.1c0,2.7,0,4.8-0.1,6.4c0,1.6-0.1,2.9-0.2,3.9
		c-0.1,1-0.4,1.6-0.7,1.9c-0.3,0.3-0.8,0.5-1.4,0.5h-12.7v28.4H327.3z"/>
</g>
<g>
	<path d="M653.7,656.9v71.9c0,0.7-0.1,1.2-0.2,1.5c-0.2,0.3-0.7,0.6-1.6,0.7s-2.3,0.2-4.2,0.2c-1.9,0-4.6,0.1-8,0.1v-74.3h-15.2
		v-10.5c0-1.7,0.8-2.5,2.5-2.5h42.4v10.5c0,1-0.2,1.7-0.6,2c-0.4,0.3-1,0.5-1.9,0.5H653.7z"/>
	<path d="M700.5,690.9h-12v37.8c0,0.7-0.1,1.2-0.2,1.5c-0.1,0.3-0.6,0.6-1.5,0.7c-0.9,0.1-2.2,0.2-4.1,0.2c-1.9,0-4.6,0.1-8.2,0.1
		v-84.8c0-0.6,0.1-1.1,0.2-1.4c0.1-0.4,0.6-0.6,1.5-0.7c0.9-0.1,2.2-0.2,4.1-0.2c1.9,0,4.6-0.1,8.2-0.1v34.3h12v-31.8
		c0-0.6,0.1-1.1,0.2-1.4c0.1-0.4,0.6-0.6,1.5-0.7c0.9-0.1,2.2-0.2,4.1-0.2c1.9,0,4.6-0.1,8.2-0.1v84.8c0,0.7-0.1,1.2-0.2,1.5
		c-0.1,0.3-0.6,0.6-1.5,0.7s-2.2,0.2-4.1,0.2c-1.9,0-4.6,0.1-8.2,0.1V690.9z"/>
	<path d="M753.6,718.8c0,2.9,0,5.2-0.1,6.9c0,1.7-0.1,2.9-0.2,3.7c-0.1,0.8-0.4,1.4-0.7,1.6c-0.4,0.2-0.9,0.3-1.4,0.3h-29.1v-84.8
		c0-0.5,0.1-0.9,0.4-1.2c0.2-0.3,0.4-0.6,0.7-0.9c0.3-0.2,0.8-0.4,1.4-0.4h29.9c0,2.8,0,5.1-0.1,6.7c0,1.6-0.1,2.9-0.2,3.7
		c-0.1,0.9-0.4,1.4-0.7,1.7s-0.9,0.4-1.4,0.4h-16v21.2h15.1c0,2.7,0,4.8-0.1,6.4c0,1.6-0.1,2.9-0.2,3.9c-0.1,1-0.4,1.6-0.7,1.9
		c-0.3,0.3-0.8,0.5-1.4,0.5H736v28.4H753.6z"/>
	<path d="M773.7,643.9c3.9,0,7.4,0.4,10.4,1.1c3,0.7,5.6,2.1,7.6,4.1c2,2,3.6,4.6,4.7,7.9c1.1,3.3,1.6,7.5,1.6,12.6
		c0,6.2-0.8,11.2-2.4,14.9c-1.6,3.7-3.7,6.5-6.3,8.5c1,1.3,2.1,3,3.3,5.1c1.2,2,2.3,4.5,3.4,7.4c1,2.9,1.9,6.2,2.7,10
		c0.7,3.8,1.2,8.2,1.4,13c0,0.6-0.1,1.1-0.2,1.5c-0.1,0.4-0.4,0.7-0.9,1s-1.2,0.4-2.2,0.5c-1,0.1-2.3,0.1-3.9,0.1
		c-2.4,0-5.2-0.1-8.2-0.4c-0.2-4.8-0.5-9.1-1.1-12.8c-0.5-3.7-1.2-7-2-9.7c-0.8-2.7-1.6-5-2.6-6.8c-0.9-1.8-1.7-3.3-2.5-4.4h-3v31.2
		c0,0.7-0.1,1.2-0.2,1.5c-0.2,0.3-0.7,0.6-1.6,0.7s-2.3,0.2-4.2,0.2c-1.9,0-4.6,0.1-8,0.1v-84.8c-0.1-0.5,0-0.9,0.2-1.2
		c0.3-0.8,1.1-1.2,2.2-1.2H773.7z M782.3,668.9c0-4.5-0.4-7.8-1.3-9.8c-0.9-2-2.3-3.1-4.2-3.1h-3.4v28.7h2.5c1,0,1.9-0.2,2.6-0.6
		c0.7-0.4,1.4-1.2,2-2.4c0.6-1.2,1-2.8,1.3-4.9C782.2,674.7,782.3,672.1,782.3,668.9z"/>
	<path d="M836.8,718.8c0,2.9,0,5.2-0.1,6.9c0,1.7-0.1,2.9-0.2,3.7c-0.1,0.8-0.4,1.4-0.7,1.6c-0.4,0.2-0.9,0.3-1.4,0.3h-29.1v-84.8
		c0-0.5,0.1-0.9,0.4-1.2c0.2-0.3,0.4-0.6,0.7-0.9c0.3-0.2,0.8-0.4,1.4-0.4h29.9c0,2.8,0,5.1-0.1,6.7c0,1.6-0.1,2.9-0.2,3.7
		c-0.1,0.9-0.4,1.4-0.7,1.7s-0.9,0.4-1.4,0.4h-16v21.2h15.1c0,2.7,0,4.8-0.1,6.4c0,1.6-0.1,2.9-0.2,3.9c-0.1,1-0.4,1.6-0.7,1.9
		c-0.3,0.3-0.8,0.5-1.4,0.5h-12.7v28.4H836.8z"/>
	<path d="M860,650c0-1.5,0.1-2.7,0.2-3.5c0.2-0.8,0.7-1.4,1.6-1.8c0.9-0.4,2.3-0.6,4.2-0.7c1.9-0.1,4.6-0.1,8.1-0.1v84.8
		c0,0.7-0.1,1.2-0.2,1.5c-0.2,0.3-0.7,0.6-1.6,0.7s-2.3,0.2-4.2,0.2c-2,0-4.7,0.1-8.2,0.1V650z"/>
	<path d="M902.1,642.7c6.3,0,10.7,0.6,13.2,1.9c2.5,1.2,3.7,3,3.7,5.1c0,1.2-0.2,2.4-0.7,3.8c-0.5,1.4-1.3,2.7-2.5,4.1
		c-0.7-0.5-2-1-4.1-1.6c-2.1-0.6-4.3-0.9-6.7-0.9c-3.1,0-5.5,0.5-7.2,1.6c-1.7,1-2.6,2.6-2.6,4.8c0,1.9,0.3,3.7,1,5.3
		c0.7,1.6,1.8,3.6,3.5,5.8l12,15.3c1.5,1.9,2.7,3.7,3.7,5.4c1,1.7,1.7,3.4,2.3,5c0.6,1.6,1,3.2,1.2,4.9c0.2,1.6,0.3,3.3,0.3,5.1
		c0,3.2-0.3,6.2-1,9.1c-0.7,2.9-1.9,5.5-3.6,7.7c-1.7,2.2-4,4.1-7,5.4c-3,1.4-6.7,2.1-11.2,2.1c-5.7,0-9.8-0.9-12.4-2.6
		c-2.6-1.7-3.9-3.6-3.9-5.8c0-1.4,0.2-3,0.7-4.9c0.5-1.8,1.3-3.6,2.4-5.2c1.3,1.2,3,2.1,5.1,2.9c2.1,0.8,4.2,1.2,6.5,1.2
		c3.5,0,5.9-0.9,7.2-2.6c1.3-1.7,1.9-4.1,1.9-7c0-2.2-0.4-4.2-1.2-6c-0.8-1.9-2.3-4.3-4.4-7.2l-11.4-15.2c-1.4-1.9-2.6-3.7-3.5-5.3
		c-0.9-1.6-1.6-3.2-2.1-4.7s-0.9-2.9-1.1-4.2c-0.2-1.3-0.3-2.7-0.3-4.1c0-5.7,1.8-10.2,5.6-13.8
		C889.1,644.4,894.7,642.7,902.1,642.7z"/>
</g>
<g>
	<path d="M128.4,869c-1.4-3.7-2.9-7.9-4.4-12.6c-1.5-4.7-2.9-9.7-4.3-14.9c-1.3-5.2-2.6-10.5-3.7-15.7c-1.2-5.2-2.3-10.1-3.3-14.8
		c1.1,10.6,1.9,21.2,2.7,31.8c0.7,10.6,1.1,20,1.1,28.3V935c0,1.4-0.2,2.5-0.5,3.2c-0.4,0.7-1.5,1.2-3.3,1.5s-4.8,0.4-8.8,0.5
		c-4,0.1-9.7,0.1-17.2,0.1V759.4c0-3.5,1.8-5.3,5.3-5.3h23.7l27.7,70c1.4,3.9,2.8,8.1,4.3,12.6c1.4,4.5,2.8,9.2,4.1,14
		s2.6,9.6,3.7,14.4c1.2,4.8,2.2,9.3,3.1,13.6c-1.2-11-2.1-21-2.5-30.1c-0.4-9-0.7-18.1-0.7-27.1v-62c0-1.2,0.2-2.3,0.5-3.1
		c0.4-0.8,1.5-1.3,3.3-1.6c1.9-0.3,4.8-0.4,8.9-0.5c4.1-0.1,9.8-0.1,17-0.1V935c0,3.5-1.8,5.3-5.3,5.3h-23.1L128.4,869z"/>
	<path d="M198.3,846.1c0-18.1,1-33.2,3.1-45.2c2-12.1,5.2-21.8,9.4-29.1c4.3-7.4,9.6-12.5,16-15.6c6.4-3,13.8-4.5,22.3-4.5
		c8.7,0,16,1.4,22.1,4.3c6,2.8,10.9,7.8,14.6,14.9c3.7,7.1,6.4,16.7,8.1,28.7c1.7,12.1,2.5,27.2,2.5,45.5c0,18.6-1,34.2-2.9,46.7
		c-2,12.5-5,22.5-9.2,30.1c-4.2,7.5-9.4,12.9-15.7,16.1c-6.3,3.2-13.8,4.8-22.5,4.8c-8.7,0-16.1-1.3-22.2-4
		c-6.1-2.7-11.1-7.6-14.9-14.8c-3.8-7.2-6.6-17-8.2-29.5C199.2,881.9,198.3,865.8,198.3,846.1z M232.4,852.8
		c0,10.5,0.2,19.4,0.5,26.9c0.4,7.4,1.1,13.6,2.1,18.4s2.6,8.3,4.7,10.5c2,2.2,4.7,3.3,8.1,3.3c3.2,0,5.9-1.2,8-3.6
		c2.1-2.4,3.8-6.3,4.9-11.6c1.2-5.3,1.9-12.1,2.4-20.5c0.4-8.3,0.7-18.4,0.7-30.1c0-11.5-0.1-21.4-0.4-29.5
		c-0.3-8.2-0.9-14.8-2-19.8s-2.7-8.7-4.8-11c-2.1-2.3-5-3.5-8.5-3.5c-3,0-5.5,1.2-7.6,3.7c-2,2.5-3.7,6.5-4.9,12
		c-1.2,5.5-2.1,12.8-2.5,21.8C232.6,828.8,232.4,839.8,232.4,852.8z"/>
	<path d="M379.7,754.1c8.9,0,16.6,1.2,23.1,3.5c6.6,2.3,12,6.6,16.2,12.8c4.3,6.2,7.4,14.8,9.6,25.7c2.1,10.9,3.2,24.9,3.2,41.9
		c0,35.5-4,61.4-12,77.8c-8,16.4-20.9,24.6-38.8,24.6h-34.3V759.4c0-1.8,0.5-3.1,1.5-4c1-0.9,3-1.3,6-1.3H379.7z M397.6,834.7
		c0-11.9-0.4-21.4-1.2-28.5c-0.8-7.1-1.9-12.5-3.2-16.2s-3-6.1-5.1-7.2c-2-1.1-4.2-1.6-6.5-1.6h-5.1v130.9h5.3c2.1,0,4.1-0.8,6-2.5
		c1.9-1.7,3.5-5.3,4.9-10.8c1.4-5.5,2.6-13.3,3.5-23.5C397.1,865.1,397.6,851.5,397.6,834.7z"/>
	<path d="M442.5,846.1c0-18.1,1-33.2,3.1-45.2c2-12.1,5.2-21.8,9.4-29.1c4.3-7.4,9.6-12.5,16-15.6c6.4-3,13.8-4.5,22.3-4.5
		c8.7,0,16,1.4,22.1,4.3c6,2.8,10.9,7.8,14.6,14.9c3.7,7.1,6.4,16.7,8.1,28.7c1.7,12.1,2.5,27.2,2.5,45.5c0,18.6-1,34.2-2.9,46.7
		c-2,12.5-5,22.5-9.2,30.1c-4.2,7.5-9.4,12.9-15.7,16.1c-6.3,3.2-13.8,4.8-22.5,4.8c-8.7,0-16.1-1.3-22.2-4
		c-6.1-2.7-11.1-7.6-14.9-14.8c-3.8-7.2-6.6-17-8.2-29.5C443.4,881.9,442.5,865.8,442.5,846.1z M476.6,852.8
		c0,10.5,0.2,19.4,0.5,26.9c0.4,7.4,1.1,13.6,2.1,18.4s2.6,8.3,4.7,10.5c2,2.2,4.7,3.3,8.1,3.3c3.2,0,5.9-1.2,8-3.6
		c2.1-2.4,3.8-6.3,4.9-11.6c1.2-5.3,1.9-12.1,2.4-20.5c0.4-8.3,0.7-18.4,0.7-30.1c0-11.5-0.1-21.4-0.4-29.5
		c-0.3-8.2-0.9-14.8-2-19.8c-1.1-5.1-2.7-8.7-4.8-11c-2.1-2.3-5-3.5-8.5-3.5c-3,0-5.5,1.2-7.6,3.7c-2,2.5-3.7,6.5-4.9,12
		c-1.2,5.5-2.1,12.8-2.5,21.8C476.8,828.8,476.6,839.8,476.6,852.8z"/>
	<path d="M604.8,751.4c5.7,0,10.2,0.4,13.6,1.3c3.4,0.9,5.9,2.1,7.6,3.6c1.7,1.5,2.8,3.2,3.3,5.1c0.5,1.9,0.8,3.8,0.8,5.7
		c0,3.5-0.4,6.8-1.3,9.8c-0.9,3-1.9,5.7-2.9,8c-1.6-1.2-3.5-2.3-5.9-3.2c-2.3-0.9-5-1.3-8-1.3c-3.7,0-7.4,1-10.9,3.1
		c-3.5,2-6.7,5.7-9.3,11c-2.7,5.3-4.8,12.4-6.4,21.3c-1.6,8.9-2.4,20.6-2.4,35.1c0,11.5,0.4,20.9,1.2,28.1c0.8,7.2,2,13.1,3.6,17.7
		c1.6,4.6,3.7,7.9,6.4,9.8c2.7,2,5.9,2.9,9.6,2.9c8.7,0,15.6-1.3,20.7-4c1.1,2.3,2,5,2.8,8.1c0.8,3.1,1.2,6.3,1.2,9.4
		c0,6.2-2.9,11-8.6,14.5c-5.8,3.5-13.7,5.2-23.8,5.2c-7.4,0-14-1.2-19.6-3.7s-10.2-7.1-14-13.8c-3.7-6.7-6.5-16-8.2-27.8
		c-1.8-11.8-2.7-26.5-2.7-44c0-21.8,1.6-39.2,4.9-52.3c3.3-13,7.5-23.3,12.6-30.7c5.1-7.4,10.9-12.5,17.2-15
		C592.6,752.7,598.7,751.4,604.8,751.4z"/>
	<path d="M696.5,781.8V935c0,1.4-0.2,2.5-0.5,3.2c-0.4,0.7-1.5,1.2-3.3,1.5s-4.8,0.4-8.9,0.5c-4.1,0.1-9.8,0.1-17,0.1V781.8h-32.5
		v-22.3c0-3.5,1.8-5.3,5.3-5.3h90.4v22.3c0,2.1-0.4,3.5-1.2,4.3c-0.8,0.7-2.2,1.1-4.1,1.1H696.5z"/>
	<path d="M733.8,846.1c0-18.1,1-33.2,3.1-45.2c2-12.1,5.2-21.8,9.4-29.1c4.3-7.4,9.6-12.5,16-15.6c6.4-3,13.8-4.5,22.3-4.5
		c8.7,0,16,1.4,22.1,4.3c6,2.8,10.9,7.8,14.6,14.9c3.7,7.1,6.4,16.7,8.1,28.7c1.7,12.1,2.5,27.2,2.5,45.5c0,18.6-1,34.2-2.9,46.7
		c-2,12.5-5,22.5-9.2,30.1c-4.2,7.5-9.4,12.9-15.7,16.1c-6.3,3.2-13.8,4.8-22.5,4.8c-8.7,0-16.1-1.3-22.2-4s-11.1-7.6-14.9-14.8
		c-3.8-7.2-6.6-17-8.2-29.5C734.6,881.9,733.8,865.8,733.8,846.1z M767.8,852.8c0,10.5,0.2,19.4,0.5,26.9c0.4,7.4,1.1,13.6,2.1,18.4
		c1.1,4.8,2.6,8.3,4.7,10.5c2,2.2,4.7,3.3,8.1,3.3c3.2,0,5.9-1.2,8-3.6c2.1-2.4,3.8-6.3,4.9-11.6c1.2-5.3,1.9-12.1,2.4-20.5
		c0.4-8.3,0.7-18.4,0.7-30.1c0-11.5-0.1-21.4-0.4-29.5c-0.3-8.2-0.9-14.8-2-19.8c-1.1-5.1-2.7-8.7-4.8-11c-2.1-2.3-5-3.5-8.5-3.5
		c-3,0-5.5,1.2-7.6,3.7c-2,2.5-3.7,6.5-4.9,12c-1.2,5.5-2.1,12.8-2.5,21.8C768.1,828.8,767.8,839.8,767.8,852.8z"/>
	<path d="M875.3,754.1c8.3,0,15.7,0.8,22.2,2.4c6.5,1.6,11.9,4.5,16.2,8.6c4.3,4.2,7.7,9.8,10,16.9c2.3,7.1,3.5,16.1,3.5,26.9
		c0,13.3-1.7,23.9-5.2,31.8c-3.5,7.9-7.9,14-13.4,18.2c2.1,2.8,4.5,6.4,7,10.8c2.6,4.3,5,9.6,7.2,15.7c2.2,6.1,4.1,13.3,5.7,21.4
		c1.6,8.2,2.6,17.4,2.9,27.7c0,1.2-0.1,2.3-0.4,3.2c-0.3,0.9-0.9,1.6-2,2.1c-1.1,0.5-2.6,0.9-4.7,1.1c-2,0.2-4.8,0.3-8.4,0.3
		c-5.1,0-11-0.3-17.6-0.8c-0.4-10.3-1.1-19.4-2.3-27.4c-1.2-8-2.6-14.8-4.3-20.6c-1.7-5.8-3.5-10.6-5.5-14.5c-2-3.9-3.7-7-5.3-9.3
		h-6.4V935c0,1.4-0.2,2.5-0.5,3.2c-0.4,0.7-1.5,1.2-3.3,1.5s-4.8,0.4-8.9,0.5c-4.1,0.1-9.8,0.1-17,0.1V759.4c-0.2-1.1,0-1.9,0.5-2.7
		c0.7-1.8,2.3-2.7,4.8-2.7H875.3z M893.7,807.3c0-9.6-0.9-16.5-2.8-20.9c-1.9-4.3-4.8-6.5-8.9-6.5h-7.2v61.2h5.3
		c2.1,0,4-0.4,5.6-1.3c1.6-0.9,3-2.6,4.3-5.2c1.2-2.6,2.2-6,2.8-10.4C893.3,819.8,893.7,814.2,893.7,807.3z"/>
</g>
<g>
	<path class="st1" d="M695.8,587.5v13.1h53.3c0.9,0,1.6,0.1,2.1,0.2c0.5,0.1,0.8,0.7,1,1.6s0.3,2.5,0.4,4.5c0.1,2,0.1,5,0.1,8.9H633
		c-0.8,0-1.5-0.1-2-0.2c-0.5-0.1-0.9-0.7-1.1-1.6s-0.3-2.5-0.4-4.5c-0.1-2-0.1-5-0.1-8.9h48.4v-13.1H633c-0.8,0-1.5-0.1-2-0.2
		c-0.5-0.1-0.9-0.7-1.1-1.6s-0.3-2.5-0.4-4.5c-0.1-2-0.1-5-0.1-8.9h119.6c0.9,0,1.6,0.1,2.1,0.2c0.5,0.1,0.8,0.7,1,1.6
		s0.3,2.5,0.4,4.5c0.1,2,0.1,5,0.1,8.9H695.8z"/>
	<path class="st1" d="M735,529.5c4.1,0,7.3,0,9.7,0.1c2.3,0,4.1,0.1,5.3,0.3c1.2,0.1,1.9,0.4,2.2,0.8c0.3,0.4,0.4,0.9,0.4,1.6V564
		H633c-0.7,0-1.3-0.1-1.8-0.4c-0.5-0.2-0.9-0.4-1.2-0.7c-0.4-0.3-0.5-0.8-0.5-1.6v-32.7c4,0,7.1,0,9.4,0.1c2.3,0,4,0.1,5.3,0.3
		c1.2,0.1,2,0.4,2.4,0.8c0.4,0.4,0.5,0.9,0.5,1.6v17.4H677v-16.5c3.8,0,6.8,0,9.1,0.1c2.3,0,4.1,0.1,5.5,0.3
		c1.3,0.1,2.3,0.4,2.7,0.7c0.5,0.4,0.7,0.9,0.7,1.5v13.9H735V529.5z"/>
	<path class="st1" d="M724.6,488.3v18.1l24.6,3.9c0.6,0.1,1.1,0.2,1.6,0.4c0.5,0.2,0.9,0.5,1.1,1c0.3,0.5,0.5,1.1,0.7,2
		c0.2,0.9,0.3,2.1,0.3,3.6c0,1-0.1,2.4-0.2,4.2c-0.1,1.8-0.3,3.6-0.5,5.4l-119.4-22.7c-2.5-0.4-3.7-2.4-3.7-6.1
		c0-1.3,0.1-2.5,0.2-3.8c0.1-1.3,0.3-2.4,0.5-3.4l119.6-22.7c1.2-0.2,2.1,0.1,2.6,1c0.6,0.8,0.9,2.8,0.9,5.9v3.7
		c0,1.5-0.1,3.2-0.4,5.2L724.6,488.3z M706.9,503.5v-12.4l-16.4,2.6c-4.7,0.7-10,1.4-15.9,2c-5.9,0.6-11.7,1.1-17.3,1.6
		c5.6,0.5,11.4,1,17.3,1.6c5.9,0.6,11.2,1.3,15.9,2L706.9,503.5z"/>
	<path class="st1" d="M734.1,448.4v-19.2h14.9c1.4,0,2.3,0.3,2.8,0.7c0.5,0.5,0.7,1.2,0.7,2v31.7H634.4c-1.2,0-2.1-0.1-2.8-0.3
		c-0.7-0.2-1.2-0.7-1.5-1.7c-0.3-1-0.5-2.5-0.5-4.6c-0.1-2.1-0.1-5-0.1-8.7H734.1z"/>
	<path class="st1" d="M647.8,403.8h101.3c0.9,0,1.6,0.1,2.1,0.3c0.5,0.2,0.8,0.7,1,1.7s0.3,2.5,0.4,4.6c0.1,2.1,0.1,5,0.1,8.7H647.8
		v16.6H633c-2.3,0-3.5-0.9-3.5-2.7v-46.3h14.8c1.4,0,2.3,0.2,2.8,0.6c0.5,0.4,0.7,1.1,0.7,2.1V403.8z"/>
	<path class="st1" d="M695.8,352.8v13.1h53.3c0.9,0,1.6,0.1,2.1,0.2c0.5,0.1,0.8,0.7,1,1.6s0.3,2.5,0.4,4.5c0.1,2,0.1,5,0.1,8.9H633
		c-0.8,0-1.5-0.1-2-0.2c-0.5-0.1-0.9-0.7-1.1-1.6s-0.3-2.5-0.4-4.5c-0.1-2-0.1-5-0.1-8.9h48.4v-13.1H633c-0.8,0-1.5-0.1-2-0.2
		c-0.5-0.1-0.9-0.7-1.1-1.6s-0.3-2.5-0.4-4.5c-0.1-2-0.1-5-0.1-8.9h119.6c0.9,0,1.6,0.1,2.1,0.2c0.5,0.1,0.8,0.7,1,1.6
		s0.3,2.5,0.4,4.5c0.1,2,0.1,5,0.1,8.9H695.8z"/>
	<path class="st1" d="M627.8,284c0-2.9,0.3-5.2,0.9-6.9c0.6-1.7,1.4-3,2.4-3.9c1-0.9,2.1-1.4,3.3-1.7c1.2-0.3,2.5-0.4,3.8-0.4
		c2.3,0,4.5,0.2,6.5,0.7c2,0.5,3.8,1,5.3,1.5c-0.8,0.8-1.5,1.8-2.1,3c-0.6,1.2-0.9,2.5-0.9,4.1c0,1.9,0.7,3.8,2,5.6
		c1.3,1.8,3.8,3.4,7.3,4.8c3.5,1.4,8.2,2.5,14.1,3.3c5.9,0.8,13.6,1.2,23.2,1.2c7.6,0,13.8-0.2,18.5-0.6c4.7-0.4,8.6-1,11.7-1.8
		c3-0.8,5.2-1.9,6.5-3.3c1.3-1.4,1.9-3,1.9-4.9c0-4.4-0.9-8-2.6-10.6c1.5-0.5,3.3-1,5.4-1.4c2.1-0.4,4.1-0.6,6.2-0.6
		c4.1,0,7.3,1.5,9.6,4.4c2.3,3,3.4,7,3.4,12.2c0,3.8-0.8,7.1-2.5,10c-1.6,2.9-4.7,5.2-9.1,7.1c-4.5,1.9-10.6,3.3-18.4,4.2
		c-7.8,0.9-17.5,1.4-29.1,1.4c-14.4,0-25.9-0.8-34.5-2.5c-8.6-1.7-15.4-3.8-20.3-6.5c-4.9-2.6-8.2-5.6-9.9-8.8
		C628.6,290.3,627.8,287.1,627.8,284z"/>
	<path class="st1" d="M724.6,231.3v18.1l24.6,3.9c0.6,0.1,1.1,0.2,1.6,0.4c0.5,0.2,0.9,0.5,1.1,1c0.3,0.5,0.5,1.1,0.7,2
		c0.2,0.9,0.3,2.1,0.3,3.6c0,1-0.1,2.4-0.2,4.2c-0.1,1.8-0.3,3.6-0.5,5.4l-119.4-22.7c-2.5-0.4-3.7-2.4-3.7-6.1
		c0-1.3,0.1-2.5,0.2-3.8c0.1-1.3,0.3-2.4,0.5-3.4l119.6-22.7c1.2-0.2,2.1,0.1,2.6,1c0.6,0.8,0.9,2.8,0.9,5.9v3.7
		c0,1.5-0.1,3.2-0.4,5.2L724.6,231.3z M706.9,246.6v-12.4l-16.4,2.6c-4.7,0.7-10,1.4-15.9,2c-5.9,0.6-11.7,1.1-17.3,1.6
		c5.6,0.5,11.4,1,17.3,1.6c5.9,0.6,11.2,1.3,15.9,2L706.9,246.6z"/>
	<path class="st1" d="M629.5,191.2c0-4.3,0.5-8.1,1.6-11.4c1.1-3.3,3-6.1,5.7-8.3c2.8-2.2,6.5-3.9,11.2-5.1
		c4.7-1.2,10.6-1.8,17.8-1.8c8.8,0,15.8,0.9,21,2.7c5.2,1.8,9.2,4.1,12,6.9c1.9-1.1,4.2-2.3,7.1-3.6c2.9-1.3,6.3-2.5,10.4-3.7
		c4-1.1,8.8-2.1,14.2-2.9c5.4-0.8,11.5-1.3,18.3-1.5c0.8,0,1.5,0.1,2.1,0.2c0.6,0.1,1.1,0.5,1.4,1c0.4,0.5,0.6,1.3,0.7,2.4
		c0.1,1,0.2,2.5,0.2,4.3c0,2.6-0.2,5.6-0.5,9c-6.8,0.2-12.8,0.6-18.1,1.2c-5.3,0.6-9.8,1.3-13.6,2.2c-3.8,0.9-7,1.8-9.6,2.8
		c-2.6,1-4.6,1.9-6.2,2.7v3.3h44c0.9,0,1.6,0.1,2.1,0.3c0.5,0.2,0.8,0.7,1,1.7s0.3,2.5,0.4,4.6c0.1,2.1,0.1,5,0.1,8.7H633
		c-0.7,0.1-1.3,0-1.8-0.3c-1.2-0.4-1.8-1.2-1.8-2.5V191.2z M664.7,181.8c-6.3,0-10.9,0.5-13.8,1.4c-2.9,1-4.3,2.5-4.3,4.6v3.7H687
		v-2.7c0-1.1-0.3-2-0.9-2.9c-0.6-0.8-1.7-1.5-3.4-2.2c-1.7-0.6-4-1.1-6.9-1.4C673,181.9,669.2,181.8,664.7,181.8z"/>
	<path class="st1" d="M735,122.3c4.1,0,7.3,0,9.7,0.1c2.3,0,4.1,0.1,5.3,0.3c1.2,0.1,1.9,0.4,2.2,0.8c0.3,0.4,0.4,0.9,0.4,1.6v31.7
		H633c-0.7,0-1.3-0.1-1.8-0.4c-0.5-0.2-0.9-0.4-1.2-0.7c-0.4-0.3-0.5-0.8-0.5-1.6v-32.7c4,0,7.1,0,9.4,0.1c2.3,0,4,0.1,5.3,0.3
		c1.2,0.1,2,0.4,2.4,0.8c0.4,0.4,0.5,0.9,0.5,1.6v17.4H677V125c3.8,0,6.8,0,9.1,0.1c2.3,0,4.1,0.1,5.5,0.3c1.3,0.1,2.3,0.4,2.7,0.7
		c0.5,0.4,0.7,0.9,0.7,1.5v13.9H735V122.3z"/>
	<path class="st1" d="M851.8,587.5v13.1h53.3c0.9,0,1.6,0.1,2.1,0.2c0.5,0.1,0.8,0.7,1,1.6s0.3,2.5,0.4,4.5c0.1,2,0.1,5,0.1,8.9H789
		c-0.8,0-1.5-0.1-2-0.2c-0.5-0.1-0.9-0.7-1.1-1.6s-0.3-2.5-0.4-4.5c-0.1-2-0.1-5-0.1-8.9h48.4v-13.1H789c-0.8,0-1.5-0.1-2-0.2
		c-0.5-0.1-0.9-0.7-1.1-1.6s-0.3-2.5-0.4-4.5c-0.1-2-0.1-5-0.1-8.9h119.6c0.9,0,1.6,0.1,2.1,0.2c0.5,0.1,0.8,0.7,1,1.6
		s0.3,2.5,0.4,4.5c0.1,2,0.1,5,0.1,8.9H851.8z"/>
	<path class="st1" d="M880.6,529.1v18.1l24.6,3.9c0.6,0.1,1.1,0.2,1.6,0.4c0.5,0.2,0.9,0.5,1.1,1c0.3,0.5,0.5,1.1,0.7,2
		c0.2,0.9,0.3,2.1,0.3,3.6c0,1-0.1,2.4-0.2,4.2c-0.1,1.8-0.3,3.6-0.5,5.4L788.8,545c-2.5-0.4-3.7-2.4-3.7-6.1c0-1.3,0.1-2.5,0.2-3.8
		c0.1-1.3,0.3-2.4,0.5-3.4L905.4,509c1.2-0.2,2.1,0.1,2.6,1c0.6,0.8,0.9,2.8,0.9,5.9v3.7c0,1.5-0.1,3.2-0.4,5.2L880.6,529.1z
		 M862.9,544.4V532l-16.4,2.6c-4.7,0.7-10,1.4-15.9,2c-5.9,0.6-11.7,1.1-17.3,1.6c5.6,0.5,11.4,1,17.3,1.6c5.9,0.6,11.2,1.3,15.9,2
		L862.9,544.4z"/>
	<path class="st1" d="M861.5,483.1c-2.5,0.7-5.2,1.5-8.4,2.2c-3.1,0.8-6.4,1.5-9.8,2.2c-3.5,0.7-6.9,1.3-10.4,1.9
		c-3.5,0.6-6.7,1.2-9.8,1.7c7-0.5,14-1,21-1.4c7-0.4,13.2-0.5,18.7-0.5h42.2c0.9,0,1.6,0.1,2.1,0.3c0.5,0.2,0.8,0.7,1,1.7
		s0.3,2.5,0.4,4.5c0.1,2,0.1,5,0.1,8.8H789c-2.3,0-3.5-0.9-3.5-2.7v-12.1l46.2-14.2c2.6-0.7,5.4-1.5,8.4-2.2c3-0.7,6.1-1.4,9.2-2.1
		c3.2-0.7,6.3-1.3,9.5-1.9c3.2-0.6,6.2-1.1,9-1.6c-7.3,0.6-13.9,1.1-19.9,1.3c-6,0.2-12,0.3-17.9,0.3h-41c-0.8,0-1.5-0.1-2-0.3
		c-0.5-0.2-0.9-0.7-1.1-1.7s-0.3-2.5-0.4-4.6c-0.1-2.1-0.1-5-0.1-8.7h119.6c2.3,0,3.5,0.9,3.5,2.7v11.8L861.5,483.1z"/>
	<path class="st1" d="M785.5,429c0-4.5,0.8-8.5,2.3-11.8c1.5-3.4,4.3-6.1,8.4-8.3c4.1-2.2,9.8-3.8,17-4.9c7.2-1.1,16.4-1.6,27.7-1.6
		c23.4,0,40.6,2,51.4,6.1c10.8,4.1,16.3,10.7,16.3,19.9v17.6H789c-1.2,0-2-0.2-2.6-0.7c-0.6-0.5-0.9-1.5-0.9-3.1V429z M838.8,419.9
		c-7.9,0-14.1,0.2-18.8,0.6c-4.7,0.4-8.3,1-10.7,1.6c-2.5,0.7-4,1.5-4.7,2.6c-0.7,1-1.1,2.2-1.1,3.3v2.6h86.5v-2.7
		c0-1.1-0.6-2.1-1.7-3.1c-1.1-1-3.5-1.8-7.1-2.5c-3.6-0.7-8.8-1.3-15.6-1.8C858.9,420.1,849.9,419.9,838.8,419.9z"/>
	<path class="st1" d="M789,395.5c-1.2,0-2-0.2-2.6-0.7c-0.6-0.5-0.9-1.5-0.9-3.1v-13.3c0-2.8,0.4-5.6,1.1-8.4
		c0.8-2.8,2.1-5.2,4.1-7.4c2-2.2,4.8-3.9,8.4-5.2c3.6-1.3,8.2-2,14-2c4.5,0,8.4,0.4,11.8,1.1c3.4,0.7,6.3,1.7,8.6,2.9
		c2.3,1.2,4.2,2.6,5.5,4.1c1.3,1.5,2.1,2.8,2.3,4c0.2-1.4,0.7-3,1.5-4.8c0.8-1.9,2.1-3.6,3.9-5.1c1.8-1.5,4.3-2.8,7.6-3.8
		c3.2-1,7.4-1.5,12.6-1.5c5.9,0,11.3,0.5,16.4,1.4c5,0.9,9.5,2.4,13.3,4.4c3.8,2,6.8,4.7,9,7.9c2.2,3.2,3.3,7.1,3.3,11.8v17.8H789z
		 M834,380v-2.6c0-1.6-1.5-2.9-4.6-3.8c-3-0.9-7.1-1.4-12.1-1.4c-3,0-5.5,0.1-7.5,0.4c-1.9,0.3-3.4,0.6-4.5,1
		c-1.1,0.4-1.8,0.9-2.1,1.4c-0.4,0.5-0.5,1.1-0.5,1.8v3.1H834z M891.5,380v-2.7c0-2.1-2-3.7-6.1-5c-4-1.2-9.7-1.8-17-1.8
		c-4,0-7.1,0.1-9.5,0.4c-2.3,0.3-4.1,0.7-5.4,1.2s-2,1.2-2.5,2c-0.4,0.8-0.6,1.8-0.6,2.9v3H891.5z"/>
	<path class="st1" d="M846.3,348.2c-12,0-21.9-0.5-29.9-1.6c-8-1-14.4-2.7-19.3-4.8c-4.9-2.2-8.3-4.9-10.3-8.2c-2-3.3-3-7.1-3-11.4
		c0-4.4,0.9-8.2,2.8-11.3c1.9-3.1,5.2-5.6,9.8-7.5c4.7-1.9,11-3.3,19-4.2c8-0.9,18-1.3,30.1-1.3c12.3,0,22.6,0.5,30.9,1.5
		c8.3,1,14.9,2.6,19.9,4.7c5,2.1,8.5,4.8,10.6,8c2.1,3.2,3.2,7.1,3.2,11.5c0,4.4-0.9,8.2-2.6,11.4c-1.8,3.1-5,5.7-9.8,7.6
		c-4.7,2-11.3,3.4-19.5,4.2C870,347.7,859.4,348.2,846.3,348.2z M850.7,330.7c6.9,0,12.8-0.1,17.8-0.3c4.9-0.2,9-0.5,12.1-1.1
		c3.2-0.5,5.5-1.3,6.9-2.4c1.5-1,2.2-2.4,2.2-4.2c0-1.6-0.8-3-2.4-4.1c-1.6-1.1-4.1-1.9-7.6-2.5c-3.5-0.6-8-1-13.5-1.2
		c-5.5-0.2-12.1-0.3-19.9-0.3c-7.6,0-14.1,0.1-19.5,0.2c-5.4,0.1-9.8,0.5-13.1,1c-3.3,0.5-5.8,1.4-7.3,2.5c-1.5,1.1-2.3,2.5-2.3,4.4
		c0,1.5,0.8,2.8,2.5,3.9c1.6,1,4.3,1.9,7.9,2.5c3.6,0.6,8.4,1.1,14.4,1.3C834.9,330.6,842.2,330.7,850.7,330.7z"/>
	<path class="st1" d="M846.3,292.6c-12,0-21.9-0.5-29.9-1.6c-8-1-14.4-2.7-19.3-4.8c-4.9-2.2-8.3-4.9-10.3-8.2c-2-3.3-3-7.1-3-11.4
		c0-4.4,0.9-8.2,2.8-11.3c1.9-3.1,5.2-5.6,9.8-7.5c4.7-1.9,11-3.3,19-4.2c8-0.9,18-1.3,30.1-1.3c12.3,0,22.6,0.5,30.9,1.5
		c8.3,1,14.9,2.6,19.9,4.7c5,2.1,8.5,4.8,10.6,8c2.1,3.2,3.2,7.1,3.2,11.5c0,4.4-0.9,8.2-2.6,11.4c-1.8,3.1-5,5.7-9.8,7.6
		c-4.7,2-11.3,3.4-19.5,4.2C870,292.2,859.4,292.6,846.3,292.6z M850.7,275.2c6.9,0,12.8-0.1,17.8-0.3c4.9-0.2,9-0.5,12.1-1.1
		c3.2-0.5,5.5-1.3,6.9-2.4c1.5-1,2.2-2.4,2.2-4.2c0-1.6-0.8-3-2.4-4.1c-1.6-1.1-4.1-1.9-7.6-2.5c-3.5-0.6-8-1-13.5-1.2
		c-5.5-0.2-12.1-0.3-19.9-0.3c-7.6,0-14.1,0.1-19.5,0.2c-5.4,0.1-9.8,0.5-13.1,1c-3.3,0.5-5.8,1.4-7.3,2.5c-1.5,1.1-2.3,2.5-2.3,4.4
		c0,1.5,0.8,2.8,2.5,3.9c1.6,1,4.3,1.9,7.9,2.5c3.6,0.6,8.4,1.1,14.4,1.3C834.9,275.1,842.2,275.2,850.7,275.2z"/>
	<path class="st1" d="M789,236c-0.8,0-1.5-0.1-2-0.3c-0.5-0.2-0.9-0.7-1.1-1.7s-0.3-2.5-0.4-4.6c-0.1-2.1-0.1-5.1-0.1-9H836
		l-49.2-14.8c-0.6-1.8-1-3.6-1.1-5.3c-0.2-1.7-0.3-3.2-0.3-4.5c0-5.4,1.6-7.5,4.9-6.5l47.8,15.5c6-5,14.7-8.7,26.1-11.1
		c11.4-2.4,25-3.6,40.7-3.6c1.6,0,2.7,0.4,3.3,1.2c0.5,0.8,0.8,2.5,0.8,5.2c0,3.5-0.2,7.1-0.5,10.9c-5.4,0-10.7,0.1-15.8,0.3
		c-5.2,0.2-10.1,0.7-14.8,1.3c-4.7,0.6-9,1.5-12.9,2.7c-3.9,1.2-7.3,2.7-10.1,4.6c-1.8,1.4-3,2.7-3.9,4.1h54.2
		c0.9,0,1.6,0.1,2.1,0.3c0.5,0.2,0.8,0.7,1,1.7s0.3,2.5,0.4,4.6c0.1,2.1,0.1,5.1,0.1,9H789z"/>
</g>
</svg>
