<?xml version="1.0" encoding="utf-8"?>
<!-- Generator: Adobe Illustrator 15.0.0, SVG Export Plug-In . SVG Version: 6.00 Build 0)  -->
<!DOCTYPE svg PUBLIC "-//W3C//DTD SVG 1.1//EN" "http://www.w3.org/Graphics/SVG/1.1/DTD/svg11.dtd">
<svg version="1.1" id="yesdoctor" xmlns="http://www.w3.org/2000/svg" xmlns:xlink="http://www.w3.org/1999/xlink" x="0px" y="0px"
	 width="1000px" height="1000px" viewBox="0 0 1000 1000" enable-background="new 0 0 1000 1000" xml:space="preserve">
<g id="center">
	<polygon id="bandaid" fill="#D4D4D4" points="423.707,686.976 618.618,686.976 625.582,352.845 491.581,406.794 423.707,392.871 
		423.707,452.039 524.646,533.832 423.707,639.988 	"/>
	<path id="hand" d="M509.674,405.423c1.246,1.038,1.494,1.387,1.822,1.503c33.031,11.683,66.072,23.309,99.083,35.041
		c3.896,1.381,4.858-0.036,4.849-3.71c-0.08-22.462-0.121-44.91,0.025-67.363c0.031-5.086-1.665-5.48-5.982-3.796
		c-24.386,9.517-48.856,18.818-73.305,28.192C527.583,398.58,518.983,401.865,509.674,405.423 M451.458,679.285
		c1.067,0.473,1.389,0.736,1.705,0.736c50.589,0.01,101.184-0.041,151.771,0.067c4.748,0.01,5.473-2.255,5.441-6.206
		c-0.116-16.335-0.03-32.677-0.056-49.015c-0.012-7.24-0.098-7.285-6.809-4.685c-39.429,15.29-78.856,30.578-118.286,45.89
		C474.143,670.377,463.077,674.734,451.458,679.285 M431.384,654.979c0,2.539,0,3.523,0,4.505c0.017,7.893,0.011,7.883,7.256,5.067
		c15.212-5.909,30.428-11.809,45.638-17.71c36.107-14.015,72.195-28.056,108.318-42.018c3.492-1.35,5.33-2.261,1.402-5.651
		c-19.041-16.459-38.012-33.025-56.811-49.766c-3.599-3.202-5.703-3.027-9.131,0.344c-29.158,28.695-58.349,57.363-87.939,85.604
		C433.706,641.471,430.238,647.795,431.384,654.979 M431.637,617.006c0.582,0.312,1.167,0.628,1.754,0.939
		c1.86-2.285,3.522-4.773,5.613-6.825c24.57-24.12,49.189-48.2,73.85-72.229c5.82-5.676,5.892-5.528-0.404-10.678
		c-12.188-9.955-24.355-19.943-36.509-29.948c-13.83-11.373-27.622-22.786-41.467-34.144c-1.473-1.21-3.025-3.604-4.795-2.865
		c-2.347,0.981-1.041,3.847-1.129,5.866c-0.167,3.928,0.134,7.88,0,11.808c-0.191,5.634-1.229,6.251-6.345,3.645
		c-21.033-10.72-42.061-21.455-63.015-32.322c-4.705-2.438-9.111-5.416-14.433-6.539c-10.994-2.323-23.199,7.217-23.485,18.373
		c-0.258,10.123,4.914,17.578,11.801,24.128c23.971,22.771,47.975,45.505,72.019,68.186c7.281,6.865,12.74,14.922,16.738,24.042
		C427.232,590.74,430.711,603.538,431.637,617.006 M615.737,589.578c0.156-2.098,0.31-3.217,0.31-4.338
		c0.01-38.788-0.071-77.576,0.121-116.367c0.025-4.672-2.277-5.973-5.952-7.229c-32.96-11.241-65.85-22.675-98.81-33.922
		c-25.511-8.706-51.105-17.143-76.604-25.869c-4.786-1.64-6.448-0.562-6.267,4.525c0.253,7.081,0.382,14.203-0.1,21.253
		c-0.42,6.043,2.223,9.773,6.672,13.413c52.696,43.154,105.274,86.455,157.884,129.72
		C600.371,576.839,607.72,582.95,615.737,589.578 M428.501,323.615c0,17.138,0.084,34.271-0.065,51.409
		c-0.037,3.982,1.399,6.022,5.225,7.253c13.857,4.469,27.641,9.201,41.431,13.889c2.505,0.85,4.798,1.053,7.404,0.056
		c40.036-15.427,80.128-30.708,120.159-46.145c13.352-5.147,13.331-5.299,13.393-19.76c0.04-10.812,0.668-21.704-2.197-32.292
		c-2.257-8.372-6.767-12.193-12.784-11.49c-5.047,0.597-7.86,5.497-7.896,14.036c-0.03,11.226-0.231,22.462,0.142,33.679
		c0.184,5.755-1.934,8.007-7.521,7.309c-0.972-0.122-1.974-0.01-2.956-0.015c-8.067-0.025-8.088-0.025-8.088-8.26
		c-0.016-25.798,0.021-51.606-0.035-77.404c-0.016-7.324-0.967-14.557-3.801-21.365c-2.44-5.876-6.691-9.632-13.403-9.936
		c-10.346-0.476-17.249,6.438-17.4,17.842c-0.162,12.405-0.03,24.816-0.062,37.227c-0.03,18.12-0.162,36.24-0.07,54.36
		c0.021,4.525-1.641,6.666-6.256,6.236c-0.973-0.091-1.965,0-2.945,0.01c-9.323,0.086-9.277,0.086-9.277-8.974
		c0.015-30.136,0.04-60.271-0.076-90.413c-0.021-4.297-0.48-8.66-1.296-12.881c-2.268-11.752-11.429-16.075-22.188-10.72
		c-4.688,2.333-7.437,6.226-9.201,11.034c-2.025,5.507-1.898,11.191-1.883,16.91c0.029,28.754-0.071,57.513,0.079,86.268
		c0.031,4.707-1.295,7.126-6.306,6.591c-1.367-0.147-2.764,0.015-4.131,0.005c-7.764-0.076-8.017-0.259-8.042-7.927
		c-0.056-19.106-0.016-38.213-0.066-57.32c-0.015-5.978-1.144-11.732-4.062-17.037c-3.842-6.985-10.439-8.589-17.581-8.666
		c-6.852-0.07-11.396,3.735-14.27,9.703c-3.232,6.731-3.971,13.949-3.976,21.293C428.497,293.282,428.497,308.446,428.501,323.615
		 M513.643,196.988c7.892,2.561,14.739,6.565,19.107,13.944c1.199,2.02,2.475,1.701,4.388,0.719
		c26.836-13.671,51.932,0.683,54.938,31.188c0.692,7.061,1.205,14.106,1.145,21.197c-0.024,2.622,0.364,4.5,3.807,4.561
		c22.635,0.405,34.261,11.034,36.312,32.94c0.688,7.253,1.012,14.511,1.012,21.805c0.03,90.584,0.188,181.166,0.197,271.746
		c0.017,66.166-0.137,132.331-0.293,198.497c-0.011,2.943,1.508,7.286-2.212,8.396c-4.626,1.377-9.886,1.439-14.536-0.197
		c-2.41-0.852-1.401-4.236-1.401-6.506c-0.057-29.339-0.046-58.682-0.035-88.021c0-8.784,0.024-8.759-8.595-8.759
		c-56.121,0.015-112.243,0.01-168.371,0.043c-7.701,0.005-7.747,0.081-7.706,7.865c0.147,27.31,0.336,54.623,0.493,81.933
		c0.005,1.177-0.197,2.354-0.297,3.53c-0.924,10.766-0.935,10.454-11.093,10.801c-5.771,0.192-7.521-1.918-7.478-7.458
		c0.187-25.206,0.078-50.409,0.083-75.612c0.01-33.477,0.698-66.971-0.207-100.42c-0.572-21.16-7.537-40.12-24.164-55.101
		c-22.814-20.55-44.667-42.167-67.071-63.177c-8.848-8.301-15.124-18.034-18.406-29.706V454.65c0.469-1.083,0.965-2.151,1.385-3.249
		c9.222-23.834,34.896-33.066,57.25-20.833c13.808,7.552,27.843,14.678,41.812,21.931c5.777,3.001,5.97,2.87,5.97-3.812
		c-0.016-51.181-0.099-102.361-0.062-153.542c0.018-13.95-0.59-27.995,4.298-41.448c3.861-10.639,10.117-19.072,21.296-22.943
		c9.786-3.392,19.405-2.05,28.9,1.144c2.942,0.992,4.766,1.099,5.483-2.637c3.365-17.427,13.604-28.35,31.058-32.272H513.643
		L513.643,196.988z"/>
</g>
<g id="circle">
	<path id="helthcarehandbook" d="M869.417,756.163l3.153-5.054l-19.78-12.352l-4.661-12.258l39.211,0.943l3.366-5.381l-44.875-1.395
		l-12.812-31.974l-3.36,5.381l16.11,40.079l-0.102,0.16l-29.594-18.477l-3.158,5.057L869.417,756.163z M812.45,774.781
		c-16.778-13.524-19.258-22.946-13.285-30.358c5.967-7.41,15.705-7,32.488,6.518c16.789,13.521,19.265,22.942,13.297,30.355
		C838.977,788.713,829.239,788.304,812.45,774.781 M808.715,779.423c18.605,14.984,31.599,15.638,40.146,5.028
		c8.549-10.613,5.138-23.169-13.469-38.15c-18.605-14.983-31.599-15.643-40.143-5.027
		C786.703,751.884,790.114,764.441,808.715,779.423 M776.104,811.459c-15.062-15.419-16.397-25.069-9.58-31.723
		c6.808-6.65,16.424-5.087,31.477,10.339c15.062,15.424,16.399,25.073,9.592,31.725C800.774,828.45,791.162,826.884,776.104,811.459
		 M771.837,815.622c16.692,17.093,29.513,19.289,39.262,9.772c9.748-9.521,7.854-22.394-8.833-39.48
		c-16.688-17.095-29.508-19.292-39.261-9.771C753.256,785.658,755.15,798.535,771.837,815.622 M755.646,869.949l14.506-11.122
		c10.001-7.666,11.741-17.804,4.642-27.062c-5.284-6.886-12.467-9.371-19.942-5.634l-0.115-0.147
		c4.312-5.411,3.313-12.527-0.658-17.716c-6.023-7.854-14.146-10.187-24.371-2.354l-14.576,11.179L755.646,869.949z
		 M740.735,840.707l8.815-6.757c8.221-6.306,15.063-5.667,20.516,1.438c5.445,7.111,4.292,13.888-3.934,20.188l-8.812,6.757
		L740.735,840.707z M722.914,817.457l8.296-6.359c7.404-5.682,13.022-5.865,18.418,1.166c4.713,6.152,3.68,12.471-4.464,18.715
		l-7.486,5.737L722.914,817.457z M683.459,841.942l8.356-4.94c11.247-6.651,19.31-3.832,30.425,14.962
		c11.019,18.639,9.596,27.062-1.65,33.709l-8.355,4.939L683.459,841.942z M709.663,897.972l13.808-8.155
		c16.713-9.881,14.911-22.245,3.853-40.961c-11.064-18.717-21.035-26.253-37.748-16.373l-13.803,8.164L709.663,897.972z
		 M660.653,920.301l5.477-2.395l-23.263-53.16l0.172-0.073l46.596,42.956l7.351-3.219l-26.699-61.023l-5.472,2.391l23.258,53.165
		l-0.168,0.072l-46.596-42.957l-7.35,3.221L660.653,920.301z M607.533,937.089l6.084-1.809l-0.351-20.144l22.356-6.647
		l10.715,17.058l6.079-1.81l-37.854-58.234l-7.156,2.131L607.533,937.089z M613.081,909.939l-0.855-38.877l0.178-0.051
		l20.528,33.021L613.081,909.939z M592.976,940.067l5.861-1.118l-12.532-65.424l-5.865,1.124l5.34,27.853l-25.565,4.899
		l-5.335-27.854l-5.866,1.124l12.532,65.419l5.866-1.123l-6.246-32.615l25.561-4.899L592.976,940.067z M490.385,950.042
		l33.861-0.431l-0.065-5.039l-27.894,0.353l-0.34-27.235l25.276-0.321l-0.061-5.038l-25.287,0.321l-0.304-24.256l27.054-0.342
		l-0.065-5.038l-33.021,0.42L490.385,950.042z M451.524,885.726l10.877,0.966c10.774,0.953,13.771,6.188,13.059,14.271
		c-0.779,8.733-6.641,12.522-16.024,11.688l-10.219-0.906L451.524,885.726z M440.135,946.526l5.942,0.528l2.688-30.296l11.252,1.003
		c10.681,0.946,12.486,4.855,11.818,16.594l-0.304,5.594c-0.224,3.54-0.248,7.002,0.937,9.449l6.976,0.619
		c-2.097-2.809-2.151-6.375-1.925-10.006l0.456-7.264c0.634-10.244-1.735-15.237-9.939-16.713l0.015-0.188
		c8.975-0.886,12.771-7.764,13.479-15.751c0.916-10.316-4.651-17.181-15.716-18.16l-19.79-1.762L440.135,946.526z M385.331,936.518
		l6.23,1.191l8.964-18.041l22.902,4.391l1.665,20.079l6.23,1.191l-6.798-69.124l-7.334-1.404L385.331,936.518z M402.751,914.968
		l17.139-34.899l0.188,0.034l3.021,38.764L402.751,914.968z M380.532,911.18c-4.165,10.713-10.907,16.077-18.894,13.486
		c-9.05-2.94-12.133-12.181-5.477-32.679c6.65-20.499,14.571-26.163,23.627-23.226c8.164,2.646,10.522,10.185,7.729,18.788
		l5.679,1.845c3.372-10.381,1.013-21.25-11.854-25.426c-12.958-4.204-23.485,3.461-30.865,26.172
		c-7.374,22.717-3.351,35.109,9.606,39.312c11.354,3.688,20.631-2.229,26.128-16.43L380.532,911.18z M298.37,903.342l5.27,2.779
		l31.077-58.905l-5.27-2.776l-13.23,25.079l-23.034-12.148l13.23-25.085l-5.264-2.778l-31.083,58.899l5.27,2.783l15.498-29.376
		l23.034,12.152L298.37,903.342z M242.714,870.528l4.976,3.276l33.855-51.437l14.345,9.438l2.758-4.197l-33.653-22.151l-2.764,4.196
		l14.339,9.438L242.714,870.528z M203.802,840.646l26.147,21.056l3.158-3.913l-21.512-17.32l38.624-47.952l-4.642-3.736
		L203.802,840.646z M163.548,802.151l4.535,4.432l17.427-10.108l16.688,16.29l-9.688,17.665l4.535,4.432l32.449-61.402l-5.34-5.208
		L163.548,802.151z M189.958,793.792l33.548-19.676l0.131,0.131l-18.863,34.011L189.958,793.792z M138.6,771.008l21.238,26.365
		l3.912-3.15l-17.497-21.729l21.223-17.093l15.857,19.688l3.917-3.15l-15.862-19.688l18.904-15.223l16.967,21.067l3.917-3.149
		l-20.711-25.714L138.6,771.008z M126.883,754.604l3.274,4.976l55.631-36.611l-3.275-4.979l-23.688,15.594l-14.318-21.754
		l23.688-15.594l-3.275-4.977l-55.625,36.617l3.275,4.976l27.736-18.26l14.318,21.754L126.883,754.604z"/>
	<path id="wherethereisnodoctor" d="M842.116,590.001l-6.449,18.302l38.387,13.521l-3.446,9.784
		c-2.597,7.372-8.037,9.029-15.25,6.773l-17.588-5.623c-3.604-1.129-7.174-1.953-10.342-1.072l-6.984,19.83l0.765,0.27
		c2.991-2.804,8.129-1.569,17.705,1.665c19.278,6.504,26.815,7.013,32.854-4.861l0.253,0.091
		c-1.464,11.058,4.966,18.753,17.042,23.005c15.509,5.461,26.607-0.914,31.896-15.914l11.904-33.808L842.116,590.001z
		 M912.945,635.523l-3.042,8.641c-2.915,8.26-8.67,11.236-17.062,8.275c-9.789-3.447-11.854-9.744-8.767-18.514l2.688-7.63
		L912.945,635.523z M898.45,545.145c25.494,3.565,35.104,6.814,33.517,18.16c-1.585,11.34-11.723,11.826-37.212,8.261
		c-25.626-3.587-35.105-6.814-33.521-18.16C862.822,542.059,872.829,541.556,898.45,545.145 M901.137,525.926
		c-28.957-4.055-50.013-3.328-54.047,25.5c-4.033,28.827,16.016,35.307,44.973,39.357c28.961,4.054,50.017,3.322,54.051-25.5
		C950.146,536.456,930.098,529.979,901.137,525.926 M947.671,453.114l-15.893,0.606l0.8,21.008l-80.26,3.048l0.738,19.388
		l80.256-3.047l0.799,21.008L950,514.521L947.671,453.114z M913.979,441.676c13.689-2.979,33.142-9.279,27.239-36.404
		c-6.194-28.443-27.245-27.584-55.816-21.364c-28.572,6.221-48.074,14.191-41.89,42.63c5.416,24.89,24.021,26.082,44.298,21.666
		l-4.13-18.96c-20.275,4.411-24.918,0.182-26.411-6.666c-1.771-8.162,2.501-13.23,30.94-19.418
		c26.599-5.796,36.695-5.646,38.791,3.963c1.863,8.563-3.462,12.616-17.158,15.597L913.979,441.676z M863.166,328.446
		c23.581-10.32,33.472-12.585,38.067-2.097c4.586,10.498-3.796,16.226-27.372,26.537c-23.708,10.371-33.473,12.585-38.062,2.088
		C831.203,344.486,839.463,338.812,863.166,328.446 M855.386,310.663c-26.79,11.725-44.343,23.374-32.677,50.042
		c11.667,26.664,32.136,21.678,58.926,9.961c26.79-11.72,44.344-23.371,32.683-50.037
		C902.65,293.962,882.176,298.945,855.386,310.663 M850.927,241.979l4.683,6.752c8.441,12.185,0.253,19.998-17.694,32.436
		c-21.479,14.891-29.994,17.513-37.673,6.436l-4.914-7.083L850.927,241.979z M772.536,272.709l17.427,25.14
		c14.663,21.152,31.438,18.381,59.456-1.04c23.253-16.126,35.664-30.632,20.312-52.778l-18.12-26.137L772.536,272.709z
		 M744.02,180.7c16.137-20.046,23.864-26.628,32.782-19.441c8.924,7.185,4.142,16.131-12.005,36.18
		c-16.228,20.149-23.87,26.628-32.789,19.446C723.085,209.694,727.783,200.852,744.02,180.7 M728.906,168.532
		c-18.344,22.774-28.531,41.215-5.855,59.475c22.665,18.259,38.519,4.378,56.86-18.401c18.342-22.774,28.524-41.215,5.854-59.475
		C763.096,131.871,747.249,145.753,728.906,168.532 M682.133,87.337l-44.899,85.098l15.735,8.298l31.441-59.588l0.238,0.124
		l-10.468,70.658l19.547,10.315l44.9-85.098l-15.736-8.298l-30.753,58.278L691.901,167l10.017-69.226L682.133,87.337z
		 M551.533,118.399l-0.835,3.814c-3.781,17.383,2.471,29.219,23.931,33.896c20.539,4.472,34.6-1.845,38.934-21.726
		c2.494-11.457,0.385-19.504-12.486-28.787l-13.246-9.5c-7.283-5.173-8.225-9.101-6.959-14.896
		c1.204-5.53,4.621-10.439,13.174-8.577c7.243,1.574,9.151,7.37,7.233,16.191l18.171,3.958l0.57-2.632
		c3.934-18.042-6.74-27.946-23.597-31.616c-17.906-3.902-31.133,3.012-35.115,21.312c-3.411,15.675,2.84,24.34,18.429,33.803
		c11.561,7.071,15.221,11.176,13.362,19.732c-1.722,7.903-8.059,10.386-13.849,9.123c-10.012-2.179-11.282-8.381-9.358-17.208
		l0.603-2.761L551.533,118.399z M539.705,148.107l6.084-96.026l-19.365-1.222l-6.084,96.018L539.705,148.107z M422.365,56.067
		l10.933,95.59l54.755-6.256l-1.802-15.799l-35.485,4.054l-2.937-25.707l32.136-3.669l-1.812-15.799l-32.13,3.67l-2.566-22.488
		l34.14-3.902l-1.812-15.802L422.365,56.067z M366.578,171.529l18.454-5.998l-12.567-38.705l9.87-3.204
		c7.435-2.414,12.051,0.901,14.638,7.997l6.216,17.394c1.29,3.546,2.799,6.884,5.426,8.863l19.998-6.489l-0.248-0.772
		c-4.049-0.668-6.187-5.499-9.436-15.073c-6.534-19.269-10.71-25.565-23.809-23.156l-0.087-0.255
		c9.678-5.55,11.885-15.336,7.932-27.509c-5.071-15.637-16.885-20.587-32.009-15.678l-34.094,11.069L366.578,171.529z
		 M359.73,87.605l8.716-2.83c8.331-2.705,14.191,0.068,16.94,8.526c3.198,9.867-0.552,15.341-9.395,18.208l-7.688,2.498
		L359.73,87.605z M268.714,113.578l44.896,85.098l48.752-25.717l-7.42-14.068l-31.589,16.67l-12.066-22.888l28.603-15.088
		l-7.421-14.065l-28.606,15.093L293.3,118.59l30.389-16.035l-7.415-14.068L268.714,113.578z M258.379,241.02l15.113-12.175
		l-26.8-33.269l17.634-14.2l26.79,33.269l15.113-12.17l-60.348-74.935l-15.113,12.17l23.075,28.655l-17.629,14.197l-23.08-28.652
		l-15.113,12.175L258.379,241.02z M143.242,225.104l11.895,10.551l13.954-15.724l60.069,53.307l12.881-14.519l-60.068-53.302
		l13.949-15.723l-11.895-10.558L143.242,225.104z M89.363,317.182l86.161,42.817l24.527-49.356l-14.238-7.076l-15.893,31.979
		l-23.166-11.515l14.385-28.961l-14.238-7.076l-14.39,28.962l-20.276-10.075l15.296-30.771l-14.242-7.081L89.363,317.182z
		 M154.002,426.134l5.532-18.598l-39.009-11.604l2.961-9.944c2.228-7.491,7.577-9.415,14.891-7.521l17.852,4.748
		c3.649,0.944,7.253,1.597,10.376,0.554l5.993-20.146l-0.774-0.233c-2.845,2.951-8.038,1.973-17.766-0.782
		c-19.578-5.544-27.13-5.681-32.57,6.475l-0.264-0.073c0.922-11.115-5.892-18.481-18.16-22.136
		c-15.756-4.685-26.532,2.234-31.067,17.472L61.778,398.7L154.002,426.134z M81.001,384.172l2.611-8.779
		c2.5-8.396,8.108-11.65,16.632-9.112c9.946,2.953,12.319,9.147,9.673,18.057l-2.309,7.754L81.001,384.172z M51.356,474.345
		l95.596,10.925l6.261-54.757l-15.802-1.805l-4.054,35.479l-25.702-2.938l3.67-32.135l-15.803-1.806l-3.669,32.136l-22.493-2.577
		l3.902-34.139l-15.797-1.805L51.356,474.345z M151.274,554.753l-1.716-19.327l-42.551,3.778l-2.005-22.551l42.547-3.778
		l-1.716-19.333L50,502.054l1.716,19.332l36.64-3.255l2.01,22.549l-36.645,3.255l1.716,19.329L151.274,554.753z M174.263,636.766
		l-6.701-20.633l-69.722,11.3l-0.081-0.255l63.065-31.812l-6.701-20.633l-96.921,13.048l5.744,17.686l70.957-11.842l0.086,0.253
		l-64.185,32.74l5.745,17.685l71.169-11.206l0.086,0.261l-64.387,32.099l5.739,17.685L174.263,636.766z"/>
</g>
</svg>
